<svg width="1139" height="279" viewBox="0 0 1139 279" fill="none" xmlns="http://www.w3.org/2000/svg">
<rect width="1139" height="279" fill="white"/>
<path d="M398.701 151.896C374.418 151.896 356.97 169.702 356.97 195.965C356.97 222.226 374.058 240.394 398.161 240.394C421.185 240.394 435.393 224.742 435.933 211.794H398.161V184.453H469.209V206.576C469.209 241.113 446.185 272.41 398.161 272.41C353.732 272.41 322.436 240.572 322.436 195.965C322.436 151.354 354.092 119.88 398.701 119.88C426.221 119.88 449.784 132.292 462.196 153.157L433.236 170.782C425.501 158.369 412.19 151.896 398.701 151.896Z" fill="#1C1C1C"/>
<path d="M549.969 192.544C561.841 192.544 569.396 183.734 569.396 172.222C569.396 160.528 561.841 151.716 549.969 151.716H522.449V192.544H549.969ZM487.734 122.398H501.225H522.449H552.848C580.548 122.398 604.29 141.103 604.29 173.119C604.29 204.416 578.748 221.863 554.645 221.863H522.449V269.891H487.734V122.398Z" fill="#1C1C1C"/>
<path d="M706.635 122.398H741.529V213.592C741.529 250.464 717.967 272.41 680.912 272.41C643.86 272.41 619.938 250.464 619.938 213.592V122.398H654.832V213.592C654.832 231.398 665.624 241.833 680.912 241.833C696.203 241.833 706.635 231.577 706.635 213.592V122.398Z" fill="#1C1C1C"/>
<path d="M815.094 190.389C800.525 190.389 792.79 200.461 792.79 216.288C792.79 232.117 800.525 242.19 815.094 242.19C829.665 242.19 837.398 232.117 837.398 216.288C837.398 200.461 829.665 190.389 815.094 190.389ZM837.578 260.717C830.384 268.273 820.67 272.41 807.72 272.41C777.142 272.41 757.716 248.666 757.716 216.288C757.716 183.733 777.142 159.99 807.72 159.99C820.67 159.99 830.384 164.126 837.578 171.681V162.688H871.573V269.89H837.578V260.717Z" fill="#1C1C1C"/>
<path d="M943.879 190.389C929.31 190.389 921.575 200.461 921.575 216.288C921.575 232.117 929.31 242.19 943.879 242.19C958.45 242.19 966.183 232.117 966.183 216.288C966.183 200.461 958.45 190.389 943.879 190.389ZM966.363 260.717C959.168 268.273 949.455 272.41 936.504 272.41C905.927 272.41 886.5 248.666 886.5 216.288C886.5 183.733 905.927 159.99 936.504 159.99C949.455 159.99 959.168 164.126 966.363 171.681V162.688H1000.36V269.89H966.363V260.717Z" fill="#1C1C1C"/>
<path d="M1014.21 229.061L1049.46 219.528C1054.14 234.098 1064.93 242.19 1078.6 242.19C1090.83 242.19 1100.18 237.153 1100.18 228.16C1100.18 220.788 1094.61 216.289 1079.5 212.514L1061.15 208.016C1035.43 201.364 1019.78 186.792 1019.78 164.309C1019.78 137.505 1044.6 119.88 1077.52 119.88C1107.38 119.88 1129.5 135.169 1135.44 159.453L1100.9 168.446C1096.59 155.854 1086.16 149.377 1073.74 149.74C1062.95 150.097 1055.04 154.597 1055.04 162.15C1055.04 170.064 1060.43 173.84 1073.02 176.9L1091.37 181.576C1120.51 188.772 1135.44 202.621 1135.44 225.644C1135.44 254.244 1111.7 272.41 1076.08 272.41C1043.52 272.41 1020.86 254.244 1014.21 229.061Z" fill="#1C1C1C"/>
<path d="M330.512 51.7747L338.04 49.592C340.449 57.044 346.624 61.2587 355.054 61.2587C363.337 61.2587 368.906 57.4974 368.906 51.096C368.906 46.5787 366.498 43.568 358.744 41.3094L348.505 38.3734C338.72 35.588 333.6 30.544 333.6 22.2627C333.6 12.1 343.386 6.00002 354.904 6.00002C366.048 6.00002 374.478 11.6494 377.189 20.2294L369.961 22.4147C367.704 16.692 362.509 12.6267 354.302 12.7014C346.698 12.7774 341.353 15.9374 341.353 21.8854C341.353 26.6307 343.686 29.4147 351.216 31.5214L361.002 34.3827C371.693 37.32 376.662 42.2867 376.662 50.7214C376.662 61.636 367.402 68.0374 354.602 68.0374C342.106 68.0374 333.373 61.788 330.512 51.7747Z" fill="#1C1C1C"/>
<path d="M385.699 6.83128H393.301V34.3099L419.879 6.83128H429.74L400.38 36.4166L430.493 67.2073H420.632L393.301 38.5993V67.2073H385.699V6.83128Z" fill="#1C1C1C"/>
<path d="M453.76 67.2063V13.7556H433.056V6.8303H482.293V13.7556H461.513V67.2063H453.76Z" fill="#1C1C1C"/>
<path d="M504.957 13.6793V11.1193V6.83128H545.158V13.6793H512.562V32.5779H541.998V39.3526H512.562V60.3579H545.535V67.2073H512.562H509.173H504.957V13.6793Z" fill="#1C1C1C"/>
<path d="M553.219 67.2063V24.1436H560.823V31.0703C563.683 26.177 568.275 23.3156 574.45 23.3156C585.065 23.3156 591.011 29.717 591.011 42.4396V67.2063H583.558V42.741C583.558 34.5343 579.719 30.393 572.493 30.393C566.017 30.393 561.275 35.5876 560.823 43.0423L560.746 67.2063H553.219Z" fill="#1C1C1C"/>
<path d="M605.468 30.9213H596.358V24.144H605.468V13.228L613.073 11.8733V24.144H622.181V30.9213H613.073V67.2053H605.468V30.9213Z" fill="#1C1C1C"/>
<path d="M645.674 30.091C637.618 30.091 632.725 35.2857 632.047 43.1177H658.773C658.547 35.511 654.181 30.091 645.674 30.091ZM624.367 45.675C624.367 32.5777 632.725 23.315 645.674 23.315C657.87 23.315 666.302 31.3724 666.302 45.075C666.302 46.2777 666.151 47.483 665.85 48.6124H632.047C632.799 56.3684 637.618 61.1857 645.899 61.1857C652.374 61.1857 656.439 58.7017 658.773 54.7857L665.173 58.1724C661.859 64.119 655.234 68.0364 645.749 68.0364C632.725 68.0364 624.367 59.0004 624.367 45.675Z" fill="#1C1C1C"/>
<path d="M673.381 24.1436H680.985V32.1996C683.845 27.157 688.738 24.1436 694.986 24.1436H697.998V30.921H694.385C686.781 30.921 680.985 36.869 680.985 45.3756V67.2063H673.381V24.1436Z" fill="#1C1C1C"/>
<path d="M724.726 61.1852C733.759 61.1852 738.503 54.7852 738.503 45.6746C738.503 36.6412 733.759 30.1666 724.726 30.1666C715.692 30.1666 710.948 36.6412 710.948 45.6746C710.948 54.7852 715.692 61.1852 724.726 61.1852ZM703.42 85.1252V24.1439H710.948V31.1466C714.036 26.2519 719.004 23.3159 726.006 23.3159C738.503 23.3159 746.258 32.7266 746.258 45.6746C746.258 58.5492 738.503 68.0372 726.006 68.0372C719.079 68.0372 714.036 65.0239 710.948 60.2052V83.7692L703.42 85.1252Z" fill="#1C1C1C"/>
<path d="M753.563 24.1436H761.167V32.1996C764.027 27.157 768.921 24.1436 775.169 24.1436H778.181V30.921H774.567C766.963 30.921 761.167 36.869 761.167 45.3756V67.2063H753.563V24.1436Z" fill="#1C1C1C"/>
<path d="M784.205 24.1438H791.733V67.2063H784.205V24.1438ZM782.925 11.0468C782.925 8.3348 785.109 6.07609 787.971 6.07609C790.831 6.07609 792.938 8.3348 792.938 11.0468C792.938 13.8321 790.831 16.0129 787.971 16.0129C785.109 16.0129 782.925 13.8321 782.925 11.0468Z" fill="#1C1C1C"/>
<path d="M798.81 56.1427L806.038 53.808C807.769 58.172 811.683 61.636 817.933 61.636C824.331 61.636 827.795 59.3027 827.795 55.3107C827.795 52.152 825.838 50.5694 819.213 48.9134L813.039 47.4827C804.157 45.376 800.693 41.76 800.693 35.664C800.693 28.5107 807.469 23.316 817.631 23.316C826.891 23.316 833.066 28.1347 835.023 34.4587L828.171 36.492C826.891 32.8787 823.578 29.6414 817.557 29.6414C811.458 29.6414 808.145 32.052 808.145 35.4387C808.145 38.224 809.651 39.88 815.222 41.3094L821.773 42.8174C831.033 45 835.249 48.3107 835.249 54.9374C835.249 62.9907 828.774 68.0374 817.631 68.0374C807.317 68.0374 801.145 62.616 798.81 56.1427Z" fill="#1C1C1C"/>
<path d="M861.15 30.091C853.093 30.091 848.201 35.2857 847.524 43.1177H874.249C874.024 35.511 869.657 30.091 861.15 30.091ZM839.844 45.675C839.844 32.5777 848.201 23.315 861.15 23.315C873.346 23.315 881.778 31.3724 881.778 45.075C881.778 46.2777 881.628 47.483 881.326 48.6124H847.524C848.276 56.3684 853.093 61.1857 861.376 61.1857C867.849 61.1857 871.916 58.7017 874.249 54.7857L880.649 58.1724C877.336 64.119 870.71 68.0364 861.225 68.0364C848.201 68.0364 839.844 59.0004 839.844 45.675Z" fill="#1C1C1C"/>
<mask id="mask0_59_4414" style="mask-type:luminance" maskUnits="userSpaceOnUse" x="171" y="174" width="100" height="99">
<path d="M171.562 223.892C171.562 250.936 193.821 272.86 221.276 272.86C248.734 272.86 270.993 250.936 270.993 223.892C270.993 196.848 248.734 174.925 221.276 174.925C193.821 174.925 171.562 196.848 171.562 223.892Z" fill="white"/>
</mask>
<g mask="url(#mask0_59_4414)">
<path d="M207.766 174.923L171.563 195.824V174.923H207.766Z" fill="#553CFF"/>
<path d="M211.778 174.924L171.562 198.143V195.825L207.765 174.924H211.778Z" fill="#553CFF"/>
<path d="M215.792 174.923L171.562 200.459V198.142L211.778 174.923H215.792Z" fill="#543BFE"/>
<path d="M219.805 174.924L171.562 202.778V200.46L215.792 174.924H219.805Z" fill="#543BFD"/>
<path d="M223.818 174.924L171.562 205.093V202.777L219.805 174.924H223.818Z" fill="#533AFC"/>
<path d="M227.832 174.924L171.562 207.41V205.093L223.819 174.924H227.832Z" fill="#5339FB"/>
<path d="M231.845 174.924L171.562 209.728V207.41L227.832 174.924H231.845Z" fill="#5239FA"/>
<path d="M235.858 174.924L171.562 212.045V209.728L231.845 174.924H235.858Z" fill="#5238F9"/>
<path d="M239.872 174.924L171.562 214.363V212.045L235.858 174.924H239.872Z" fill="#5137F9"/>
<path d="M243.885 174.923L171.562 216.678V214.362L239.872 174.923H243.885Z" fill="#5036F8"/>
<path d="M247.899 174.924L171.564 218.996V216.679L243.885 174.924H247.899Z" fill="#5036F7"/>
<path d="M251.912 174.923L171.564 221.313V218.995L247.899 174.923H251.912Z" fill="#4F35F6"/>
<path d="M255.925 174.923L171.563 223.63V221.313L251.911 174.923H255.925Z" fill="#4E34F5"/>
<path d="M259.938 174.924L171.563 225.948V223.63L255.925 174.924H259.938Z" fill="#4E33F4"/>
<path d="M261.414 174.924L262.049 176.023L171.563 228.264V225.948L259.938 174.924H261.414Z" fill="#4D33F3"/>
<path d="M262.048 176.023L263.052 177.76L171.563 230.581V228.264L262.048 176.023Z" fill="#4C32F2"/>
<path d="M263.052 177.76L264.056 179.499L171.564 232.899V230.581L263.052 177.76Z" fill="#4C31F1"/>
<path d="M264.055 179.499L265.059 181.236L171.563 235.216V232.899L264.055 179.499Z" fill="#4B30F0"/>
<path d="M265.059 181.236L266.063 182.974L171.564 237.532V235.215L265.059 181.236Z" fill="#4B30EF"/>
<path d="M266.062 182.974L267.066 184.713L171.563 239.85V237.533L266.062 182.974Z" fill="#4A2FED"/>
<path d="M267.065 184.712L268.069 186.449L171.564 242.166V239.85L267.065 184.712Z" fill="#492EEC"/>
<path d="M268.068 186.45L269.072 188.187L171.563 244.485V242.167L268.068 186.45Z" fill="#492DEB"/>
<path d="M269.072 188.188L270.076 189.925L171.564 246.801V244.485L269.072 188.188Z" fill="#482CEA"/>
<path d="M270.075 189.925L270.992 191.514V191.713L171.563 249.118V246.801L270.075 189.925Z" fill="#472CE9"/>
<path d="M270.992 194.03L171.563 251.436V249.118L270.992 191.713V194.03Z" fill="#472BE8"/>
<path d="M270.992 196.347L171.563 253.752V251.435L270.992 194.03V196.347Z" fill="#462AE7"/>
<path d="M270.992 198.664L171.563 256.07V253.752L270.992 196.347V198.664Z" fill="#4529E6"/>
<path d="M270.992 200.982L172.48 257.858L171.563 256.268V256.07L270.992 198.664V200.982Z" fill="#4529E5"/>
<path d="M270.992 203.299L173.484 259.596L172.48 257.857L270.992 200.981V203.299Z" fill="#4428E4"/>
<path d="M270.992 205.615L174.487 261.332L173.484 259.595L270.992 203.298V205.615Z" fill="#4327E3"/>
<path d="M270.992 207.932L175.491 263.071L174.487 261.332L270.992 205.615V207.932Z" fill="#4326E2"/>
<path d="M270.993 210.249L176.494 264.808L175.491 263.071L270.993 207.932V210.249Z" fill="#4225E1"/>
<path d="M270.992 212.566L177.498 266.546L176.494 264.809L270.992 210.249V212.566Z" fill="#4125E0"/>
<path d="M270.992 214.883L178.5 268.283L177.498 266.546L270.992 212.566V214.883Z" fill="#4124DF"/>
<path d="M270.992 217.202L179.504 270.022L178.5 268.284L270.992 214.884V217.202Z" fill="#4023DE"/>
<path d="M270.992 219.519L180.507 271.76L179.504 270.021L270.992 217.201V219.519Z" fill="#3F22DD"/>
<path d="M270.992 221.836L182.618 272.86H181.141L180.507 271.76L270.992 219.518V221.836Z" fill="#3F21DC"/>
<path d="M270.992 224.152L186.631 272.859H182.618L270.992 221.835V224.152Z" fill="#3E21DB"/>
<path d="M270.992 226.469L190.644 272.859H186.631L270.992 224.152V226.469Z" fill="#3D20DA"/>
<path d="M270.993 228.787L194.658 272.859H190.645L270.993 226.469V228.787Z" fill="#3D1FD9"/>
<path d="M270.992 231.103L198.67 272.858H194.658L270.992 228.786V231.103Z" fill="#3C1ED8"/>
<path d="M270.992 233.421L202.683 272.86H198.669L270.992 231.104V233.421Z" fill="#3B1DD7"/>
<path d="M270.992 235.737L206.696 272.859H202.683L270.992 233.42V235.737Z" fill="#3B1DD5"/>
<path d="M270.992 238.055L210.71 272.859H206.696L270.992 235.737V238.055Z" fill="#3A1CD4"/>
<path d="M270.992 240.372L214.723 272.859H210.709L270.992 238.055V240.372Z" fill="#391BD3"/>
<path d="M270.992 242.688L218.736 272.858H214.723L270.992 240.371V242.688Z" fill="#391AD2"/>
<path d="M270.992 245.006L222.75 272.86H218.736L270.992 242.689V245.006Z" fill="#3819D1"/>
<path d="M270.992 247.323L226.763 272.859H222.75L270.992 245.005V247.323Z" fill="#3719D0"/>
<path d="M270.992 249.64L230.776 272.859H226.763L270.992 247.323V249.64Z" fill="#3718CF"/>
<path d="M270.992 251.956L234.79 272.858H230.776L270.992 249.639V251.956Z" fill="#3617CE"/>
<path d="M234.79 272.859L270.993 251.957V272.859H234.79Z" fill="#3617CE"/>
</g>
<mask id="mask1_59_4414" style="mask-type:luminance" maskUnits="userSpaceOnUse" x="4" y="6" width="267" height="217">
<path d="M118.584 6.50254C82.4217 6.54387 51.0483 6.58551 44.0697 6.48951C11.3097 6.38285 -7.95969 44.9427 12.9603 70.636C19.8283 79.156 30.0417 84.5957 41.067 85.6223C44.9483 85.949 46.775 85.9148 50.0043 85.8814C51.6643 85.8628 53.6963 85.8454 56.575 85.8814C64.6443 85.8814 74.331 85.7734 84.4256 85.6601C102.524 85.4574 121.926 85.2556 135.642 85.7343C136.496 85.773 137.308 85.7997 138.108 85.8411C141.415 85.9877 146.483 87.0145 149.203 88.2825C179.936 102.654 131.11 189.469 109.428 222.736L258.843 73.3228C266.428 65.7495 270.24 55.8281 270.31 45.8827C270.202 25.3494 252.922 7.2148 232.07 6.5748C230.922 6.56147 229.722 6.56144 228.482 6.54811C215.883 6.48278 198.45 6.46152 179.268 6.46152C159.763 6.46152 138.45 6.48378 118.584 6.50644" fill="white"/>
</mask>
<g mask="url(#mask1_59_4414)">
<path d="M4.24959 222.731H-7.95703V6.29062H4.24959V222.731Z" fill="#553CFF"/>
<path d="M9.67887 222.731H4.24951V6.29062H9.67887V222.731Z" fill="#553CFF"/>
<path d="M15.1081 222.731H9.67871V6.29062H15.1081V222.731Z" fill="#543BFE"/>
<path d="M20.5387 222.731H15.1094V6.29062H20.5387V222.731Z" fill="#543BFD"/>
<path d="M25.9683 222.731H20.5391V6.29062H25.9683V222.731Z" fill="#533AFC"/>
<path d="M31.3976 222.731H25.9683V6.29062H31.3976V222.731Z" fill="#5339FB"/>
<path d="M36.8283 222.731H31.3989V6.29062H36.8283V222.731Z" fill="#5239FA"/>
<path d="M42.2575 222.731H36.8281V6.29062H42.2575V222.731Z" fill="#5238F9"/>
<path d="M47.6871 222.731H42.2578V6.29062H47.6871V222.731Z" fill="#5137F9"/>
<path d="M53.1178 222.731H47.6885V6.29062H53.1178V222.731Z" fill="#5036F8"/>
<path d="M58.547 222.731H53.1177V6.29062H58.547V222.731Z" fill="#5036F7"/>
<path d="M63.9762 222.731H58.5469V6.29062H63.9762V222.731Z" fill="#4F35F6"/>
<path d="M69.4069 222.731H63.9775V6.29062H69.4069V222.731Z" fill="#4E34F5"/>
<path d="M74.8365 222.731H69.4072V6.29062H74.8365V222.731Z" fill="#4E33F4"/>
<path d="M80.2658 222.731H74.8364V6.29062H80.2658V222.731Z" fill="#4D33F3"/>
<path d="M85.6965 222.731H80.2671V6.29062H85.6965V222.731Z" fill="#4C32F2"/>
<path d="M91.1257 222.731H85.6963V6.29062H91.1257V222.731Z" fill="#4C31F1"/>
<path d="M96.5548 222.731H91.1255V6.29062H96.5548V222.731Z" fill="#4B30F0"/>
<path d="M101.985 222.731H96.5562V6.29062H101.985V222.731Z" fill="#4B30EF"/>
<path d="M107.415 222.731H101.985V6.29062H107.415V222.731Z" fill="#4A2FED"/>
<path d="M112.844 222.731H107.415V6.29062H112.844V222.731Z" fill="#492EEC"/>
<path d="M118.275 222.731H112.846V6.29062H118.275V222.731Z" fill="#492DEB"/>
<path d="M123.704 222.731H118.275V6.29062H123.704V222.731Z" fill="#482CEA"/>
<path d="M129.133 222.731H123.704V6.29062H129.133V222.731Z" fill="#472CE9"/>
<path d="M134.564 222.731H129.135V6.29062H134.564V222.731Z" fill="#472BE8"/>
<path d="M139.994 222.731H134.564V6.29062H139.994V222.731Z" fill="#462AE7"/>
<path d="M145.423 222.731H139.994V6.29062H145.423V222.731Z" fill="#4529E6"/>
<path d="M150.854 222.731H145.424V6.29062H150.854V222.731Z" fill="#4529E5"/>
<path d="M156.283 222.731H150.854V6.29062H156.283V222.731Z" fill="#4428E4"/>
<path d="M161.714 222.731H156.284V6.29062H161.714V222.731Z" fill="#4327E3"/>
<path d="M167.143 222.731H161.714V6.29062H167.143V222.731Z" fill="#4326E2"/>
<path d="M172.572 222.731H167.143V6.29062H172.572V222.731Z" fill="#4225E1"/>
<path d="M178.002 222.731H172.572V6.29062H178.002V222.731Z" fill="#4125E0"/>
<path d="M183.432 222.731H178.003V6.29062H183.432V222.731Z" fill="#4124DF"/>
<path d="M188.861 222.731H183.432V6.29062H188.861V222.731Z" fill="#4023DE"/>
<path d="M194.292 222.731H188.863V6.29062H194.292V222.731Z" fill="#3F22DD"/>
<path d="M199.721 222.731H194.292V6.29062H199.721V222.731Z" fill="#3F21DC"/>
<path d="M205.151 222.731H199.722V6.29062H205.151V222.731Z" fill="#3E21DB"/>
<path d="M210.582 222.731H205.152V6.29062H210.582V222.731Z" fill="#3D20DA"/>
<path d="M216.011 222.731H210.582V6.29062H216.011V222.731Z" fill="#3D1FD9"/>
<path d="M221.44 222.731H216.011V6.29062H221.44V222.731Z" fill="#3C1ED8"/>
<path d="M226.871 222.731H221.441V6.29062H226.871V222.731Z" fill="#3B1DD7"/>
<path d="M232.3 222.731H226.871V6.29062H232.3V222.731Z" fill="#3B1DD5"/>
<path d="M237.73 222.731H232.3V6.29062H237.73V222.731Z" fill="#3A1CD4"/>
<path d="M243.16 222.731H237.731V6.29062H243.16V222.731Z" fill="#391BD3"/>
<path d="M248.589 222.731H243.16V6.29062H248.589V222.731Z" fill="#391AD2"/>
<path d="M254.019 222.731H248.59V6.29062H254.019V222.731Z" fill="#3819D1"/>
<path d="M259.45 222.731H254.02V6.29062H259.45V222.731Z" fill="#3719D0"/>
<path d="M264.879 222.731H259.45V6.29062H264.879V222.731Z" fill="#3718CF"/>
<path d="M270.308 222.731H264.879V6.29062H270.308V222.731Z" fill="#3617CE"/>
</g>
<mask id="mask2_59_4414" style="mask-type:luminance" maskUnits="userSpaceOnUse" x="4" y="85" width="156" height="188">
<path d="M15.4693 205.902C7.82665 213.545 4 223.57 4 233.596C4 243.625 7.82665 253.65 15.4693 261.292C30.7613 276.597 55.5626 276.597 70.8693 261.292L109.428 222.732C131.109 189.465 179.936 102.651 149.203 88.2787C146.483 87.0107 141.415 85.984 138.108 85.8373C137.308 85.796 136.496 85.7692 135.641 85.7306L15.4693 205.902Z" fill="white"/>
</mask>
<g mask="url(#mask2_59_4414)">
<path d="M159.08 85.7304H179.935V276.597H159.08V85.7304Z" fill="#6E78FF"/>
<path d="M156.496 85.7304H159.08V276.597H156.496V85.7304Z" fill="#6E78FF"/>
<path d="M153.911 85.7304H156.495V276.597H153.911V85.7304Z" fill="#6E77FF"/>
<path d="M151.327 85.7304H153.911V276.597H151.327V85.7304Z" fill="#6D76FF"/>
<path d="M148.741 85.7304H151.325V276.597H148.741V85.7304Z" fill="#6D75FF"/>
<path d="M146.157 85.7304H148.741V276.597H146.157V85.7304Z" fill="#6C74FF"/>
<path d="M143.572 85.7304H146.156V276.597H143.572V85.7304Z" fill="#6C73FF"/>
<path d="M140.988 85.7304H143.572V276.597H140.988V85.7304Z" fill="#6B72FF"/>
<path d="M138.403 85.7304H140.988V276.597H138.403V85.7304Z" fill="#6B71FF"/>
<path d="M135.819 85.7304H138.403V276.597H135.819V85.7304Z" fill="#6B70FF"/>
<path d="M133.233 85.7304H135.817V276.597H133.233V85.7304Z" fill="#6A6FFF"/>
<path d="M130.649 85.7304H133.233V276.597H130.649V85.7304Z" fill="#6A6EFF"/>
<path d="M128.065 85.7304H130.649V276.597H128.065V85.7304Z" fill="#696DFF"/>
<path d="M125.48 85.7304H128.064V276.597H125.48V85.7304Z" fill="#696CFF"/>
<path d="M122.896 85.7304H125.48V276.597H122.896V85.7304Z" fill="#686BFF"/>
<path d="M120.311 85.7304H122.895V276.597H120.311V85.7304Z" fill="#686AFF"/>
<path d="M117.727 85.7304H120.312V276.597H117.727V85.7304Z" fill="#6869FF"/>
<path d="M115.142 85.7304H117.726V276.597H115.142V85.7304Z" fill="#6768FF"/>
<path d="M112.558 85.7304H115.142V276.597H112.558V85.7304Z" fill="#6767FF"/>
<path d="M109.972 85.7304H112.556V276.597H109.972V85.7304Z" fill="#6666FF"/>
<path d="M107.388 85.7304H109.972V276.597H107.388V85.7304Z" fill="#6665FF"/>
<path d="M104.803 85.7304H107.387V276.597H104.803V85.7304Z" fill="#6664FF"/>
<path d="M102.219 85.7304H104.803V276.597H102.219V85.7304Z" fill="#6563FF"/>
<path d="M99.6333 85.7304H102.219V276.597H99.6333V85.7304Z" fill="#6562FF"/>
<path d="M97.0493 85.7304H99.6333V276.597H97.0493V85.7304Z" fill="#6461FF"/>
<path d="M94.4639 85.7304H97.0479V276.597H94.4639V85.7304Z" fill="#6460FF"/>
<path d="M91.8799 85.7304H94.4639V276.597H91.8799V85.7304Z" fill="#635FFF"/>
<path d="M89.2949 85.7304H91.8789V276.597H89.2949V85.7304Z" fill="#635EFF"/>
<path d="M86.7109 85.7304H89.295V276.597H86.7109V85.7304Z" fill="#635DFF"/>
<path d="M84.1255 85.7304H86.7095V276.597H84.1255V85.7304Z" fill="#625CFF"/>
<path d="M81.5415 85.7304H84.1255V276.597H81.5415V85.7304Z" fill="#625BFF"/>
<path d="M78.9561 85.7304H81.5414V276.597H78.9561V85.7304Z" fill="#6159FF"/>
<path d="M76.3721 85.7304H78.9561V276.597H76.3721V85.7304Z" fill="#6158FF"/>
<path d="M73.7866 85.7304H76.3706V276.597H73.7866V85.7304Z" fill="#6057FF"/>
<path d="M71.2026 85.7304H73.7866V276.597H71.2026V85.7304Z" fill="#6056FF"/>
<path d="M68.6172 85.7304H71.2013V276.597H68.6172V85.7304Z" fill="#6055FF"/>
<path d="M66.0332 85.7304H68.6172V276.597H66.0332V85.7304Z" fill="#5F54FF"/>
<path d="M63.4482 85.7304H66.0322V276.597H63.4482V85.7304Z" fill="#5F53FF"/>
<path d="M60.8643 85.7304H63.4496V276.597H60.8643V85.7304Z" fill="#5E52FF"/>
<path d="M58.2788 85.7304H60.8628V276.597H58.2788V85.7304Z" fill="#5E51FF"/>
<path d="M55.6948 85.7304H58.2788V276.597H55.6948V85.7304Z" fill="#5D50FF"/>
<path d="M53.1094 85.7304H55.6934V276.597H53.1094V85.7304Z" fill="#5D4FFF"/>
<path d="M50.5254 85.7304H53.1094V276.597H50.5254V85.7304Z" fill="#5D4EFF"/>
<path d="M47.9414 85.7304H50.5254V276.597H47.9414V85.7304Z" fill="#5C4DFF"/>
<path d="M45.356 85.7304H47.9399V276.597H45.356V85.7304Z" fill="#5C4CFF"/>
<path d="M42.772 85.7304H45.356V276.597H42.772V85.7304Z" fill="#5B4BFF"/>
<path d="M40.1865 85.7304H42.7719V276.597H40.1865V85.7304Z" fill="#5B4AFF"/>
<path d="M37.6025 85.7304H40.1865V276.597H37.6025V85.7304Z" fill="#5B49FF"/>
<path d="M35.0176 85.7304H37.6016V276.597H35.0176V85.7304Z" fill="#5A48FF"/>
<path d="M32.4336 85.7304H35.0177V276.597H32.4336V85.7304Z" fill="#5A47FF"/>
<path d="M29.8481 85.7304H32.4321V276.597H29.8481V85.7304Z" fill="#5946FF"/>
<path d="M27.2642 85.7304H29.8481V276.597H27.2642V85.7304Z" fill="#5945FF"/>
<path d="M24.6787 85.7304H27.2627V276.597H24.6787V85.7304Z" fill="#5844FF"/>
<path d="M22.0947 85.7304H24.68V276.597H22.0947V85.7304Z" fill="#5843FF"/>
<path d="M19.5093 85.7304H22.0933V276.597H19.5093V85.7304Z" fill="#5842FF"/>
<path d="M16.9253 85.7304H19.5093V276.597H16.9253V85.7304Z" fill="#5741FF"/>
<path d="M14.3403 85.7304H16.9243V276.597H14.3403V85.7304Z" fill="#5740FF"/>
<path d="M11.7559 85.7304H14.3399V276.597H11.7559V85.7304Z" fill="#563FFF"/>
<path d="M9.1709 85.7304H11.7549V276.597H9.1709V85.7304Z" fill="#563EFF"/>
<path d="M6.58691 85.7304H9.1709V276.597H6.58691V85.7304Z" fill="#553DFF"/>
<path d="M4.00146 85.7304H6.58545V276.597H4.00146V85.7304Z" fill="#553CFF"/>
</g>
</svg>
