<svg width="307" height="279" viewBox="0 0 307 279" fill="none" xmlns="http://www.w3.org/2000/svg">
<rect width="307" height="279" fill="white"/>
<mask id="mask0_59_4686" style="mask-type:luminance" maskUnits="userSpaceOnUse" x="187" y="175" width="100" height="99">
<path d="M187.562 224.43C187.562 251.474 209.821 273.398 237.276 273.398C264.734 273.398 286.993 251.474 286.993 224.43C286.993 197.386 264.734 175.463 237.276 175.463C209.821 175.463 187.562 197.386 187.562 224.43Z" fill="white"/>
</mask>
<g mask="url(#mask0_59_4686)">
<path d="M223.766 175.462L187.563 196.363V175.462H223.766Z" fill="#553CFF"/>
<path d="M227.778 175.463L187.562 198.681V196.364L223.765 175.463H227.778Z" fill="#553CFF"/>
<path d="M231.792 175.462L187.562 200.998V198.68L227.778 175.462H231.792Z" fill="#543BFE"/>
<path d="M235.805 175.463L187.562 203.316V200.999L231.792 175.463H235.805Z" fill="#543BFD"/>
<path d="M239.818 175.462L187.562 205.632V203.316L235.805 175.462H239.818Z" fill="#533AFC"/>
<path d="M243.832 175.462L187.562 207.949V205.632L239.819 175.462H243.832Z" fill="#5339FB"/>
<path d="M247.845 175.462L187.562 210.266V207.949L243.832 175.462H247.845Z" fill="#5239FA"/>
<path d="M251.858 175.462L187.562 212.584V210.266L247.845 175.462H251.858Z" fill="#5238F9"/>
<path d="M255.872 175.462L187.562 214.901V212.584L251.858 175.462H255.872Z" fill="#5137F9"/>
<path d="M259.885 175.462L187.562 217.217V214.901L255.872 175.462H259.885Z" fill="#5036F8"/>
<path d="M263.899 175.463L187.564 219.535V217.218L259.885 175.463H263.899Z" fill="#5036F7"/>
<path d="M267.912 175.462L187.564 221.851V219.534L263.899 175.462H267.912Z" fill="#4F35F6"/>
<path d="M271.925 175.462L187.563 224.169V221.851L267.911 175.462H271.925Z" fill="#4E34F5"/>
<path d="M275.938 175.462L187.563 226.486V224.169L271.925 175.462H275.938Z" fill="#4E33F4"/>
<path d="M277.414 175.462L278.049 176.561L187.563 228.802V226.486L275.938 175.462H277.414Z" fill="#4D33F3"/>
<path d="M278.048 176.561L279.052 178.299L187.563 231.12V228.803L278.048 176.561Z" fill="#4C32F2"/>
<path d="M279.052 178.299L280.056 180.037L187.564 233.437V231.12L279.052 178.299Z" fill="#4C31F1"/>
<path d="M280.055 180.037L281.059 181.775L187.563 235.755V233.437L280.055 180.037Z" fill="#4B30F0"/>
<path d="M281.059 181.775L282.063 183.512L187.564 238.071V235.754L281.059 181.775Z" fill="#4B30EF"/>
<path d="M282.062 183.512L283.066 185.251L187.563 240.388V238.071L282.062 183.512Z" fill="#4A2FED"/>
<path d="M283.065 185.25L284.069 186.988L187.564 242.705V240.389L283.065 185.25Z" fill="#492EEC"/>
<path d="M284.068 186.989L285.072 188.726L187.563 245.023V242.706L284.068 186.989Z" fill="#492DEB"/>
<path d="M285.072 188.726L286.076 190.464L187.564 247.34V245.024L285.072 188.726Z" fill="#482CEA"/>
<path d="M286.075 190.464L286.992 192.053V192.252L187.563 249.657V247.34L286.075 190.464Z" fill="#472CE9"/>
<path d="M286.992 194.569L187.563 251.974V249.657L286.992 192.252V194.569Z" fill="#472BE8"/>
<path d="M286.992 196.885L187.563 254.291V251.973L286.992 194.568V196.885Z" fill="#462AE7"/>
<path d="M286.992 199.203L187.563 256.608V254.291L286.992 196.885V199.203Z" fill="#4529E6"/>
<path d="M286.992 201.52L188.48 258.396L187.563 256.807V256.608L286.992 199.203V201.52Z" fill="#4529E5"/>
<path d="M286.992 203.837L189.484 260.135L188.48 258.396L286.992 201.52V203.837Z" fill="#4428E4"/>
<path d="M286.992 206.154L190.487 261.871L189.484 260.134L286.992 203.836V206.154Z" fill="#4327E3"/>
<path d="M286.992 208.47L191.491 263.609L190.487 261.87L286.992 206.153V208.47Z" fill="#4326E2"/>
<path d="M286.993 210.788L192.494 265.346L191.491 263.609L286.993 208.47V210.788Z" fill="#4225E1"/>
<path d="M286.992 213.105L193.498 267.085L192.494 265.347L286.992 210.787V213.105Z" fill="#4125E0"/>
<path d="M286.992 215.422L194.5 268.822L193.498 267.085L286.992 213.105V215.422Z" fill="#4124DF"/>
<path d="M286.992 217.74L195.504 270.56L194.5 268.823L286.992 215.423V217.74Z" fill="#4023DE"/>
<path d="M286.992 220.057L196.507 272.299L195.504 270.56L286.992 217.74V220.057Z" fill="#3F22DD"/>
<path d="M286.992 222.374L198.618 273.398H197.141L196.507 272.298L286.992 220.057V222.374Z" fill="#3F21DC"/>
<path d="M286.992 224.691L202.631 273.397H198.618L286.992 222.373V224.691Z" fill="#3E21DB"/>
<path d="M286.992 227.008L206.644 273.397H202.631L286.992 224.691V227.008Z" fill="#3D20DA"/>
<path d="M286.993 229.325L210.658 273.397H206.645L286.993 227.008V229.325Z" fill="#3D1FD9"/>
<path d="M286.992 231.642L214.67 273.396H210.658L286.992 229.324V231.642Z" fill="#3C1ED8"/>
<path d="M286.992 233.96L218.683 273.398H214.669L286.992 231.642V233.96Z" fill="#3B1DD7"/>
<path d="M286.992 236.276L222.696 273.397H218.683L286.992 233.959V236.276Z" fill="#3B1DD5"/>
<path d="M286.992 238.593L226.71 273.397H222.696L286.992 236.276V238.593Z" fill="#3A1CD4"/>
<path d="M286.992 240.911L230.723 273.397H226.709L286.992 238.593V240.911Z" fill="#391BD3"/>
<path d="M286.992 243.227L234.736 273.396H230.723L286.992 240.91V243.227Z" fill="#391AD2"/>
<path d="M286.992 245.545L238.75 273.398H234.736L286.992 243.228V245.545Z" fill="#3819D1"/>
<path d="M286.992 247.861L242.763 273.397H238.75L286.992 245.544V247.861Z" fill="#3719D0"/>
<path d="M286.992 250.179L246.776 273.397H242.763L286.992 247.861V250.179Z" fill="#3718CF"/>
<path d="M286.992 252.495L250.79 273.396H246.776L286.992 250.178V252.495Z" fill="#3617CE"/>
<path d="M250.79 273.397L286.993 252.496V273.397H250.79Z" fill="#3617CE"/>
</g>
<mask id="mask1_59_4686" style="mask-type:luminance" maskUnits="userSpaceOnUse" x="20" y="7" width="267" height="217">
<path d="M134.584 7.04111C98.4217 7.08244 67.0483 7.12409 60.0697 7.02809C27.3097 6.92142 8.04031 45.4812 28.9603 71.1746C35.8283 79.6946 46.0417 85.1342 57.067 86.1609C60.9483 86.4876 62.775 86.4533 66.0043 86.42C67.6643 86.4013 69.6963 86.384 72.575 86.42C80.6443 86.42 90.331 86.312 100.426 86.1987C118.524 85.996 137.926 85.7942 151.642 86.2729C152.496 86.3115 153.308 86.3383 154.108 86.3796C157.415 86.5263 162.483 87.5531 165.203 88.8211C195.936 103.193 147.11 190.008 125.428 223.274L274.843 73.8614C282.428 66.2881 286.24 56.3666 286.31 46.4213C286.202 25.888 268.922 7.75338 248.07 7.11338C246.922 7.10004 245.722 7.10002 244.482 7.08668C231.883 7.02135 214.45 7.00009 195.268 7.00009C175.763 7.00009 154.45 7.02235 134.584 7.04502" fill="white"/>
</mask>
<g mask="url(#mask1_59_4686)">
<path d="M20.2496 223.269H8.04297V6.8292H20.2496V223.269Z" fill="#553CFF"/>
<path d="M25.6789 223.269H20.2495V6.8292H25.6789V223.269Z" fill="#553CFF"/>
<path d="M31.1081 223.269H25.6787V6.8292H31.1081V223.269Z" fill="#543BFE"/>
<path d="M36.5387 223.269H31.1094V6.8292H36.5387V223.269Z" fill="#543BFD"/>
<path d="M41.9683 223.269H36.5391V6.8292H41.9683V223.269Z" fill="#533AFC"/>
<path d="M47.3976 223.269H41.9683V6.8292H47.3976V223.269Z" fill="#5339FB"/>
<path d="M52.8283 223.269H47.3989V6.8292H52.8283V223.269Z" fill="#5239FA"/>
<path d="M58.2575 223.269H52.8281V6.8292H58.2575V223.269Z" fill="#5238F9"/>
<path d="M63.6871 223.269H58.2578V6.8292H63.6871V223.269Z" fill="#5137F9"/>
<path d="M69.1178 223.269H63.6885V6.8292H69.1178V223.269Z" fill="#5036F8"/>
<path d="M74.547 223.269H69.1177V6.8292H74.547V223.269Z" fill="#5036F7"/>
<path d="M79.9762 223.269H74.5469V6.8292H79.9762V223.269Z" fill="#4F35F6"/>
<path d="M85.4069 223.269H79.9775V6.8292H85.4069V223.269Z" fill="#4E34F5"/>
<path d="M90.8365 223.269H85.4072V6.8292H90.8365V223.269Z" fill="#4E33F4"/>
<path d="M96.2658 223.269H90.8364V6.8292H96.2658V223.269Z" fill="#4D33F3"/>
<path d="M101.696 223.269H96.2671V6.8292H101.696V223.269Z" fill="#4C32F2"/>
<path d="M107.126 223.269H101.696V6.8292H107.126V223.269Z" fill="#4C31F1"/>
<path d="M112.555 223.269H107.125V6.8292H112.555V223.269Z" fill="#4B30F0"/>
<path d="M117.985 223.269H112.556V6.8292H117.985V223.269Z" fill="#4B30EF"/>
<path d="M123.415 223.269H117.985V6.8292H123.415V223.269Z" fill="#4A2FED"/>
<path d="M128.844 223.269H123.415V6.8292H128.844V223.269Z" fill="#492EEC"/>
<path d="M134.275 223.269H128.846V6.8292H134.275V223.269Z" fill="#492DEB"/>
<path d="M139.704 223.269H134.275V6.8292H139.704V223.269Z" fill="#482CEA"/>
<path d="M145.133 223.269H139.704V6.8292H145.133V223.269Z" fill="#472CE9"/>
<path d="M150.564 223.269H145.135V6.8292H150.564V223.269Z" fill="#472BE8"/>
<path d="M155.994 223.269H150.564V6.8292H155.994V223.269Z" fill="#462AE7"/>
<path d="M161.423 223.269H155.994V6.8292H161.423V223.269Z" fill="#4529E6"/>
<path d="M166.854 223.269H161.424V6.8292H166.854V223.269Z" fill="#4529E5"/>
<path d="M172.283 223.269H166.854V6.8292H172.283V223.269Z" fill="#4428E4"/>
<path d="M177.714 223.269H172.284V6.8292H177.714V223.269Z" fill="#4327E3"/>
<path d="M183.143 223.269H177.714V6.8292H183.143V223.269Z" fill="#4326E2"/>
<path d="M188.572 223.269H183.143V6.8292H188.572V223.269Z" fill="#4225E1"/>
<path d="M194.002 223.269H188.572V6.8292H194.002V223.269Z" fill="#4125E0"/>
<path d="M199.432 223.269H194.003V6.8292H199.432V223.269Z" fill="#4124DF"/>
<path d="M204.861 223.269H199.432V6.8292H204.861V223.269Z" fill="#4023DE"/>
<path d="M210.292 223.269H204.863V6.8292H210.292V223.269Z" fill="#3F22DD"/>
<path d="M215.721 223.269H210.292V6.8292H215.721V223.269Z" fill="#3F21DC"/>
<path d="M221.151 223.269H215.722V6.8292H221.151V223.269Z" fill="#3E21DB"/>
<path d="M226.582 223.269H221.152V6.8292H226.582V223.269Z" fill="#3D20DA"/>
<path d="M232.011 223.269H226.582V6.8292H232.011V223.269Z" fill="#3D1FD9"/>
<path d="M237.44 223.269H232.011V6.8292H237.44V223.269Z" fill="#3C1ED8"/>
<path d="M242.871 223.269H237.441V6.8292H242.871V223.269Z" fill="#3B1DD7"/>
<path d="M248.3 223.269H242.871V6.8292H248.3V223.269Z" fill="#3B1DD5"/>
<path d="M253.73 223.269H248.3V6.8292H253.73V223.269Z" fill="#3A1CD4"/>
<path d="M259.16 223.269H253.731V6.8292H259.16V223.269Z" fill="#391BD3"/>
<path d="M264.589 223.269H259.16V6.8292H264.589V223.269Z" fill="#391AD2"/>
<path d="M270.019 223.269H264.59V6.8292H270.019V223.269Z" fill="#3819D1"/>
<path d="M275.45 223.269H270.02V6.8292H275.45V223.269Z" fill="#3719D0"/>
<path d="M280.879 223.269H275.45V6.8292H280.879V223.269Z" fill="#3718CF"/>
<path d="M286.308 223.269H280.879V6.8292H286.308V223.269Z" fill="#3617CE"/>
</g>
<mask id="mask2_59_4686" style="mask-type:luminance" maskUnits="userSpaceOnUse" x="20" y="86" width="156" height="188">
<path d="M31.4693 206.441C23.8267 214.084 20 224.109 20 234.134C20 244.164 23.8267 254.189 31.4693 261.83C46.7613 277.136 71.5626 277.136 86.8693 261.83L125.428 223.27C147.109 190.004 195.936 103.189 165.203 88.8173C162.483 87.5493 157.415 86.5226 154.108 86.3759C153.308 86.3346 152.496 86.3078 151.641 86.2691L31.4693 206.441Z" fill="white"/>
</mask>
<g mask="url(#mask2_59_4686)">
<path d="M175.08 86.269H195.935V277.135H175.08V86.269Z" fill="#6E78FF"/>
<path d="M172.496 86.269H175.08V277.135H172.496V86.269Z" fill="#6E78FF"/>
<path d="M169.911 86.269H172.495V277.135H169.911V86.269Z" fill="#6E77FF"/>
<path d="M167.327 86.269H169.911V277.135H167.327V86.269Z" fill="#6D76FF"/>
<path d="M164.741 86.269H167.325V277.135H164.741V86.269Z" fill="#6D75FF"/>
<path d="M162.157 86.269H164.741V277.135H162.157V86.269Z" fill="#6C74FF"/>
<path d="M159.572 86.269H162.156V277.135H159.572V86.269Z" fill="#6C73FF"/>
<path d="M156.988 86.269H159.572V277.135H156.988V86.269Z" fill="#6B72FF"/>
<path d="M154.403 86.269H156.988V277.135H154.403V86.269Z" fill="#6B71FF"/>
<path d="M151.819 86.269H154.403V277.135H151.819V86.269Z" fill="#6B70FF"/>
<path d="M149.233 86.269H151.817V277.135H149.233V86.269Z" fill="#6A6FFF"/>
<path d="M146.649 86.269H149.233V277.135H146.649V86.269Z" fill="#6A6EFF"/>
<path d="M144.065 86.269H146.649V277.135H144.065V86.269Z" fill="#696DFF"/>
<path d="M141.48 86.269H144.064V277.135H141.48V86.269Z" fill="#696CFF"/>
<path d="M138.896 86.269H141.48V277.135H138.896V86.269Z" fill="#686BFF"/>
<path d="M136.311 86.269H138.895V277.135H136.311V86.269Z" fill="#686AFF"/>
<path d="M133.727 86.269H136.312V277.135H133.727V86.269Z" fill="#6869FF"/>
<path d="M131.142 86.269H133.726V277.135H131.142V86.269Z" fill="#6768FF"/>
<path d="M128.558 86.269H131.142V277.135H128.558V86.269Z" fill="#6767FF"/>
<path d="M125.972 86.269H128.556V277.135H125.972V86.269Z" fill="#6666FF"/>
<path d="M123.388 86.269H125.972V277.135H123.388V86.269Z" fill="#6665FF"/>
<path d="M120.803 86.269H123.387V277.135H120.803V86.269Z" fill="#6664FF"/>
<path d="M118.219 86.269H120.803V277.135H118.219V86.269Z" fill="#6563FF"/>
<path d="M115.633 86.269H118.219V277.135H115.633V86.269Z" fill="#6562FF"/>
<path d="M113.049 86.269H115.633V277.135H113.049V86.269Z" fill="#6461FF"/>
<path d="M110.464 86.269H113.048V277.135H110.464V86.269Z" fill="#6460FF"/>
<path d="M107.88 86.269H110.464V277.135H107.88V86.269Z" fill="#635FFF"/>
<path d="M105.295 86.269H107.879V277.135H105.295V86.269Z" fill="#635EFF"/>
<path d="M102.711 86.269H105.295V277.135H102.711V86.269Z" fill="#635DFF"/>
<path d="M100.125 86.269H102.709V277.135H100.125V86.269Z" fill="#625CFF"/>
<path d="M97.5415 86.269H100.125V277.135H97.5415V86.269Z" fill="#625BFF"/>
<path d="M94.9561 86.269H97.5414V277.135H94.9561V86.269Z" fill="#6159FF"/>
<path d="M92.3721 86.269H94.9561V277.135H92.3721V86.269Z" fill="#6158FF"/>
<path d="M89.7866 86.269H92.3706V277.135H89.7866V86.269Z" fill="#6057FF"/>
<path d="M87.2026 86.269H89.7866V277.135H87.2026V86.269Z" fill="#6056FF"/>
<path d="M84.6172 86.269H87.2013V277.135H84.6172V86.269Z" fill="#6055FF"/>
<path d="M82.0332 86.269H84.6172V277.135H82.0332V86.269Z" fill="#5F54FF"/>
<path d="M79.4482 86.269H82.0322V277.135H79.4482V86.269Z" fill="#5F53FF"/>
<path d="M76.8643 86.269H79.4496V277.135H76.8643V86.269Z" fill="#5E52FF"/>
<path d="M74.2788 86.269H76.8628V277.135H74.2788V86.269Z" fill="#5E51FF"/>
<path d="M71.6948 86.269H74.2788V277.135H71.6948V86.269Z" fill="#5D50FF"/>
<path d="M69.1094 86.269H71.6934V277.135H69.1094V86.269Z" fill="#5D4FFF"/>
<path d="M66.5254 86.269H69.1094V277.135H66.5254V86.269Z" fill="#5D4EFF"/>
<path d="M63.9414 86.269H66.5254V277.135H63.9414V86.269Z" fill="#5C4DFF"/>
<path d="M61.356 86.269H63.9399V277.135H61.356V86.269Z" fill="#5C4CFF"/>
<path d="M58.772 86.269H61.356V277.135H58.772V86.269Z" fill="#5B4BFF"/>
<path d="M56.1865 86.269H58.7719V277.135H56.1865V86.269Z" fill="#5B4AFF"/>
<path d="M53.6025 86.269H56.1865V277.135H53.6025V86.269Z" fill="#5B49FF"/>
<path d="M51.0176 86.269H53.6016V277.135H51.0176V86.269Z" fill="#5A48FF"/>
<path d="M48.4336 86.269H51.0177V277.135H48.4336V86.269Z" fill="#5A47FF"/>
<path d="M45.8481 86.269H48.4321V277.135H45.8481V86.269Z" fill="#5946FF"/>
<path d="M43.2642 86.269H45.8481V277.135H43.2642V86.269Z" fill="#5945FF"/>
<path d="M40.6787 86.269H43.2627V277.135H40.6787V86.269Z" fill="#5844FF"/>
<path d="M38.0947 86.269H40.68V277.135H38.0947V86.269Z" fill="#5843FF"/>
<path d="M35.5093 86.269H38.0933V277.135H35.5093V86.269Z" fill="#5842FF"/>
<path d="M32.9253 86.269H35.5093V277.135H32.9253V86.269Z" fill="#5741FF"/>
<path d="M30.3403 86.269H32.9243V277.135H30.3403V86.269Z" fill="#5740FF"/>
<path d="M27.7559 86.269H30.3399V277.135H27.7559V86.269Z" fill="#563FFF"/>
<path d="M25.1709 86.269H27.7549V277.135H25.1709V86.269Z" fill="#563EFF"/>
<path d="M22.5869 86.269H25.1709V277.135H22.5869V86.269Z" fill="#553DFF"/>
<path d="M20.0015 86.269H22.5854V277.135H20.0015V86.269Z" fill="#553CFF"/>
</g>
</svg>
